<svg width="121" height="28" viewBox="0 0 121 28" fill="none" xmlns="http://www.w3.org/2000/svg">
<path d="M31.24 -1.90735e-06L19.12 28H12.72L0.64 -1.90735e-06H7.64L16.16 20L24.8 -1.90735e-06H31.24ZM57.2578 22.8V28H35.5778V-1.90735e-06H56.7378V5.2H42.0178V11.28H55.0178V16.32H42.0178V22.8H57.2578ZM81.7803 28L75.0203 18.28L68.3803 28H60.9403L71.3003 13.76L61.4603 -1.90735e-06H68.8203L75.2603 9.08L81.5803 -1.90735e-06H88.5803L78.8203 13.52L89.2603 28H81.7803ZM111.69 22H98.6897L96.2097 28H89.5697L102.05 -1.90735e-06H108.45L120.97 28H114.17L111.69 22ZM109.65 17.08L105.21 6.36L100.77 17.08H109.65Z" fill="#4CAD79"/>
</svg>
